<?xml version="1.0" encoding="UTF-8" standalone="no"?>
<!-- Created with Inkscape (http://www.inkscape.org/) by Toomai Glittershine for SmashWiki -->

<svg
   id="svg2"
   version="1.1"
   height="256"
   width="256"
   viewBox="0 0 256 256"
   sodipodi:docname="gcn-y.svg"
   inkscape:version="1.2.2 (b0a8486541, 2022-12-01)"
   inkscape:export-filename="../png/gcn-y.png"
   inkscape:export-xdpi="96"
   inkscape:export-ydpi="96"
   xmlns:inkscape="http://www.inkscape.org/namespaces/inkscape"
   xmlns:sodipodi="http://sodipodi.sourceforge.net/DTD/sodipodi-0.dtd"
   xmlns="http://www.w3.org/2000/svg"
   xmlns:svg="http://www.w3.org/2000/svg"
   xmlns:rdf="http://www.w3.org/1999/02/22-rdf-syntax-ns#"
   xmlns:cc="http://creativecommons.org/ns#"
   xmlns:dc="http://purl.org/dc/elements/1.1/">
  <sodipodi:namedview
     id="namedview923"
     pagecolor="#ffffff"
     bordercolor="#666666"
     borderopacity="1.0"
     inkscape:showpageshadow="2"
     inkscape:pageopacity="0.0"
     inkscape:pagecheckerboard="0"
     inkscape:deskcolor="#d1d1d1"
     showgrid="false"
     inkscape:zoom="3.2070312"
     inkscape:cx="127.84409"
     inkscape:cy="128.15591"
     inkscape:window-width="1452"
     inkscape:window-height="989"
     inkscape:window-x="484"
     inkscape:window-y="74"
     inkscape:window-maximized="0"
     inkscape:current-layer="g4455" />
  <defs
     id="defs4">
    <clipPath
       id="clipPath4292"
       clipPathUnits="userSpaceOnUse">
      <path
         id="path4294"
         d="m 176.00391,71.935547 c -40.97836,0 -82.111321,11.020585 -117.599613,31.509763 -15.095377,8.71532 -22.930088,25.16471 -21.410156,41.45313 -0.799022,8.59655 0.952365,17.51271 5.597656,25.55859 11.929351,20.66224 38.34947,27.74185 59.011723,15.8125 22.52977,-13.00757 48.38525,-19.93555 74.40039,-19.93555 23.8587,0 43.19922,-19.34051 43.19921,-43.19921 l 0,-8 c 0,-23.858704 -19.34051,-43.199223 -43.19921,-43.199223 z" />
    </clipPath>
    <filter
       id="filter4304"
       x="-0.012"
       y="-0.012"
       width="1.024"
       height="1.024"
       style="color-interpolation-filters:sRGB">
      <feGaussianBlur
         id="feGaussianBlur4306"
         stdDeviation="1.28" />
    </filter>
    <clipPath
       id="clipPath4397"
       clipPathUnits="userSpaceOnUse">
      <path
         id="path4399"
         d="m 176.00391,71.935547 c -40.97836,0 -82.111321,11.020585 -117.599613,31.509763 -20.66224,11.92935 -27.74185,38.34948 -15.8125,59.01172 11.92935,20.66224 38.349473,27.74185 59.011723,15.8125 22.52977,-13.00757 48.38525,-19.93555 74.40039,-19.93555 23.8587,0 43.19922,-19.34051 43.19921,-43.19921 0,-23.858704 -19.34051,-43.199223 -43.19921,-43.199223 z" />
    </clipPath>
    <filter
       id="filter4391"
       x="-0.024657346"
       y="-0.042121746"
       width="1.0493414"
       height="1.084198"
       style="color-interpolation-filters:sRGB">
      <feGaussianBlur
         id="feGaussianBlur4393"
         stdDeviation="1.4" />
    </filter>
  </defs>
  <metadata
     id="metadata7">
    <rdf:RDF>
      <cc:Work
         rdf:about="">
        <dc:format>image/svg+xml</dc:format>
        <dc:type
           rdf:resource="http://purl.org/dc/dcmitype/StillImage" />
      </cc:Work>
    </rdf:RDF>
  </metadata>
  <g
     id="g4455">
    <path
       id="path4214"
       style="opacity:1;fill:#e8e8e8;fill-opacity:0;stroke:#e8e8e8;stroke-opacity:1;stroke-width:4;stroke-dasharray:none"
       d="m 58.403605,103.44566 c -20.662241,11.92935 -27.741648,38.35005 -15.812298,59.01229 11.929351,20.66224 38.350058,27.74165 59.012303,15.8123 22.52977,-13.00757 48.38486,-19.93542 74.4,-19.93542 23.8587,0 43.2,-19.3413 43.2,-43.2 0,-23.8587 -19.3413,-43.2 -43.2,-43.2 -40.97836,0 -82.111713,11.02165 -117.600005,31.51083 z" />
    <path
       id="path4320"
       style="fill:#e8e8e8;fill-opacity:1;stroke:none"
       d="m 106.53664,94.337943 13.33228,28.220707 0,28.22265 12.031,0 0,-28.22265 13.33204,-28.220707 -12.0293,0 -7.31836,15.488277 -7.31641,-15.488277 z" />
  </g>
</svg>
