<?xml version="1.0" encoding="UTF-8" standalone="no"?>
<!-- Created with Inkscape (http://www.inkscape.org/) by Toomai Glittershine for SmashWiki -->

<svg
   id="svg2"
   version="1.1"
   height="256"
   width="256"
   viewBox="0 0 256 256"
   sodipodi:docname="gcn-x.svg"
   inkscape:export-filename="../png/gcn-x.png"
   inkscape:export-xdpi="96"
   inkscape:export-ydpi="96"
   inkscape:version="1.2.2 (b0a8486541, 2022-12-01)"
   xmlns:inkscape="http://www.inkscape.org/namespaces/inkscape"
   xmlns:sodipodi="http://sodipodi.sourceforge.net/DTD/sodipodi-0.dtd"
   xmlns="http://www.w3.org/2000/svg"
   xmlns:svg="http://www.w3.org/2000/svg"
   xmlns:rdf="http://www.w3.org/1999/02/22-rdf-syntax-ns#"
   xmlns:cc="http://creativecommons.org/ns#"
   xmlns:dc="http://purl.org/dc/elements/1.1/">
  <sodipodi:namedview
     id="namedview20"
     pagecolor="#ffffff"
     bordercolor="#666666"
     borderopacity="1.0"
     inkscape:showpageshadow="2"
     inkscape:pageopacity="0.0"
     inkscape:pagecheckerboard="0"
     inkscape:deskcolor="#d1d1d1"
     showgrid="false"
     inkscape:zoom="3.2070312"
     inkscape:cx="127.84409"
     inkscape:cy="128.15591"
     inkscape:window-width="1452"
     inkscape:window-height="989"
     inkscape:window-x="513"
     inkscape:window-y="84"
     inkscape:window-maximized="0"
     inkscape:current-layer="g4455" />
  <defs
     id="defs4">
    <clipPath
       id="clipPath4292"
       clipPathUnits="userSpaceOnUse">
      <path
         id="path4294"
         d="m 71.935547,88.044901 c -0.0054,7.328946 1.867086,14.755389 5.794922,21.558599 13.007567,22.52977 19.935547,48.38525 19.935547,74.40039 0,23.8587 19.340514,43.19922 43.199214,43.19921 23.8587,0 43.19922,-19.34051 43.19922,-43.19921 l 0,-7.99998 c 0,-40.97836 -11.02058,-82.111321 -31.50976,-117.599613 -7.82864,-13.559595 -21.89895,-21.27083 -36.48633,-21.597656 -7.64101,-0.171195 -15.42275,1.684442 -22.525391,5.785156 -13.862208,8.003349 -21.59926,22.529247 -21.601563,37.458008 z" />
    </clipPath>
    <filter
       id="filter4304"
       x="-0.012"
       y="-0.012"
       width="1.024"
       height="1.024"
       style="color-interpolation-filters:sRGB">
      <feGaussianBlur
         id="feGaussianBlur4306"
         stdDeviation="1.28" />
    </filter>
    <clipPath
       id="clipPath4397"
       clipPathUnits="userSpaceOnUse">
      <path
         id="path4399"
         d="M 152.55434,58.403606 C 140.62499,37.741366 114.20429,30.661959 93.542047,42.591309 c -20.66224,11.92935 -27.74165,38.350057 -15.8123,59.012301 13.00757,22.52977 19.93542,48.38486 19.93542,74.4 0,23.8587 19.341303,43.2 43.200003,43.2 23.8587,0 43.2,-19.3413 43.2,-43.2 0,-40.97836 -11.02165,-82.111712 -31.51083,-117.600004 z" />
    </clipPath>
    <filter
       id="filter4391"
       x="-0.032460392"
       y="-0.0190225"
       width="1.0649208"
       height="1.038045"
       style="color-interpolation-filters:sRGB">
      <feGaussianBlur
         id="feGaussianBlur4393"
         stdDeviation="1.4" />
    </filter>
  </defs>
  <metadata
     id="metadata7">
    <rdf:RDF>
      <cc:Work
         rdf:about="">
        <dc:format>image/svg+xml</dc:format>
        <dc:type
           rdf:resource="http://purl.org/dc/dcmitype/StillImage" />
      </cc:Work>
    </rdf:RDF>
  </metadata>
  <g
     id="g4455">
    <path
       id="path4214"
       style="opacity:1;fill:#bfbfbf;fill-opacity:0;stroke:#e8e8e8;stroke-width:4;stroke-dasharray:none;stroke-opacity:1"
       d="M 152.55434,58.403604 C 140.62499,37.741363 114.20429,30.661956 93.542047,42.591306 c -20.66224,11.929351 -27.74165,38.350058 -15.8123,59.012304 13.00757,22.52977 19.93542,48.38486 19.93542,74.4 0,23.8587 19.341303,43.2 43.200003,43.2 23.8587,0 43.2,-19.3413 43.2,-43.2 0,-40.97836 -11.02165,-82.111714 -31.51083,-117.600006 z" />
    <path
       id="path4320"
       style="fill:#e8e8e8;fill-opacity:1;stroke:none"
       d="m 114.09272,98.267105 13.33204,28.220705 -13.33204,28.22265 12.03125,0 7.31641,-15.48828 7.31836,15.48828 12.0293,0 -13.33204,-28.22265 13.33204,-28.220705 -12.0293,0 -7.31836,15.488275 -7.31641,-15.488275 -12.03125,0 z" />
  </g>
</svg>
