<?xml version="1.0" encoding="UTF-8" standalone="no"?>
<!-- Created with Inkscape (http://www.inkscape.org/) -->

<svg
   width="156mm"
   height="156mm"
   viewBox="0 0 156 156"
   version="1.1"
   id="svg1"
   inkscape:version="1.4.2 (f4327f4, 2025-05-13)"
   sodipodi:docname="circular_icon.svg"
   xml:space="preserve"
   inkscape:export-batch-path="C:\Users\Sourov\Documents\new-gba"
   inkscape:export-batch-name="circular_icon"
   xmlns:inkscape="http://www.inkscape.org/namespaces/inkscape"
   xmlns:sodipodi="http://sodipodi.sourceforge.net/DTD/sodipodi-0.dtd"
   xmlns="http://www.w3.org/2000/svg"
   xmlns:svg="http://www.w3.org/2000/svg"><sodipodi:namedview
     id="namedview1"
     pagecolor="#ffffff"
     bordercolor="#000000"
     borderopacity="0.25"
     inkscape:showpageshadow="2"
     inkscape:pageopacity="0.0"
     inkscape:pagecheckerboard="0"
     inkscape:deskcolor="#d1d1d1"
     inkscape:document-units="mm"
     showguides="true"
     inkscape:zoom="0.72604517"
     inkscape:cx="397.3582"
     inkscape:cy="192.13681"
     inkscape:window-width="1920"
     inkscape:window-height="1017"
     inkscape:window-x="-8"
     inkscape:window-y="-8"
     inkscape:window-maximized="1"
     inkscape:current-layer="g15"><sodipodi:guide
       position="77.999997,77.999997"
       orientation="0,-1"
       id="guide1"
       inkscape:locked="false" /><sodipodi:guide
       position="77.999997,77.999997"
       orientation="1,0"
       id="guide2"
       inkscape:locked="false" /></sodipodi:namedview><defs
     id="defs1"><rect
       x="-457.27183"
       y="-329.18062"
       width="1539.8491"
       height="1020.5977"
       id="rect11" /><rect
       x="157.01502"
       y="166.6563"
       width="718.96353"
       height="633.56939"
       id="rect8" /><rect
       x="83.660399"
       y="138.54273"
       width="788.18618"
       height="412.38718"
       id="rect7" /><rect
       x="123.95923"
       y="174.92025"
       width="325.04864"
       height="264.44636"
       id="rect6" /><rect
       x="157.01502"
       y="166.6563"
       width="718.96353"
       height="633.56939"
       id="rect9" /><rect
       x="157.01502"
       y="166.6563"
       width="718.96353"
       height="633.56939"
       id="rect4" /><rect
       x="157.01502"
       y="166.6563"
       width="718.96353"
       height="633.56939"
       id="rect5" /><rect
       x="157.01502"
       y="166.6563"
       width="718.96353"
       height="633.56939"
       id="rect13" /></defs><g
     inkscape:label="retroarch"
     inkscape:groupmode="layer"
     id="layer1"
     style="display:inline;fill:#ececec"><path
       id="path1"
       style="opacity:1;fill:#ececec;stroke-width:0.379861"
       d="M 77.99989,0.99993896 A 77,77 0 0 0 0.99993896,77.99989 77,77 0 0 0 77.99989,154.99984 77,77 0 0 0 154.99984,77.99989 77,77 0 0 0 77.99989,0.99993896 Z m 0,7.50031734 A 69.5,69.5 0 0 1 147.50004,77.99989 69.5,69.5 0 0 1 77.99989,147.50004 69.5,69.5 0 0 1 8.5002563,77.99989 69.5,69.5 0 0 1 77.99989,8.5002563 Z"
       inkscape:label="circular_boundary" /><path
       style="display:inline;fill:#ececec;fill-opacity:1;stroke:#c0c0c0;stroke-width:0;stroke-miterlimit:4;stroke-dasharray:none;stroke-opacity:1"
       d="m 44.983953,103.0444 6.905681,-7.891347 -9.822902,-0.02306 c -5.402588,-0.01152 -9.821747,-0.03276 -9.820344,-0.04368 0.0011,-0.01152 0.593391,-2.379165 1.315492,-5.2605 l 1.312964,-5.239476 H 24.330692 13.78656 L 17.411728,70.085753 21.036893,55.58513 h 3.912685 3.912673 l -1.975956,7.891349 c -1.086723,4.340219 -1.977104,7.901289 -1.978528,7.913436 -0.0011,0.01212 2.980743,0.02304 6.627045,0.02304 h 6.629638 l 0.06191,-0.243138 c 0.03426,-0.133706 0.922469,-3.684823 1.974501,-7.891337 l 1.91265,-7.648027 9.423658,-0.04416 9.423667,-0.04416 -4.063585,-4.995362 C 54.66224,47.799248 52.753952,45.441777 52.656576,45.308073 l -0.177047,-0.243142 h 3.895385 3.895399 l 4.604908,5.260909 4.604922,5.260892 h 8.519923 8.519929 l 4.604915,-5.260896 4.60492,-5.260907 h 3.89536 3.89539 l -0.17708,0.243129 c -0.0971,0.133705 -2.0057,2.491173 -4.24069,5.238774 l -4.063602,4.995639 9.423672,0.04416 9.42367,0.04416 1.91277,7.648165 c 1.05198,4.206512 1.94057,7.757633 1.97449,7.891337 l 0.0604,0.243138 h 6.62964 c 3.64632,0 6.62847,-0.0087 6.62706,-0.02304 -9.7e-4,-0.01212 -0.89191,-3.573215 -1.97854,-7.913435 l -1.97461,-7.891839 h 3.91266 3.91269 l 3.62517,14.500623 3.62516,14.500588 h -10.54416 -10.54413 l 1.31297,5.238808 c 0.72202,2.881337 1.31409,5.248545 1.31549,5.260499 9.6e-4,0.01212 -4.41779,0.03276 -9.82035,0.04369 l -9.8229,0.02304 6.90567,7.891365 6.90569,7.89134 -5.99086,-0.005 -5.99088,-0.005 -6.41027,-7.90675 -6.410279,-7.90676 H 78.000036 62.880624 l -6.410283,7.90676 -6.410283,7.90675 -5.990862,0.005 -5.990859,0.005 z M 62.880559,70.086452 V 63.4993 h -6.631325 -6.631325 l -0.02304,6.498733 c -0.01212,3.574329 -0.0043,6.548742 0.01993,6.609836 0.03426,0.08835 1.41162,0.107026 6.654194,0.08835 l 6.611774,-0.02304 z m 43.501481,0 V 63.4993 l -6.60922,-0.02304 -6.609233,-0.02304 v 6.632515 6.632515 l 6.609233,-0.02304 6.60922,-0.02304 z"
       id="path30"
       inkscape:connector-curvature="0"
       inkscape:export-filename="C:\Users\Andres\Desktop\text4540.png"
       inkscape:export-xdpi="357.51724"
       inkscape:export-ydpi="357.51724"
       inkscape:label="retroarch_logo" /></g><g
     inkscape:label="fast_forward"
     inkscape:groupmode="layer"
     id="g6"
     style="display:inline;fill:#ececec"><path
       id="path5"
       style="opacity:1;fill:#ececec;stroke-width:0.379861"
       d="M 77.99989,0.99993896 A 77,77 0 0 0 0.99993896,77.99989 77,77 0 0 0 77.99989,154.99984 77,77 0 0 0 154.99984,77.99989 77,77 0 0 0 77.99989,0.99993896 Z m 0,7.50031734 A 69.5,69.5 0 0 1 147.50004,77.99989 69.5,69.5 0 0 1 77.99989,147.50004 69.5,69.5 0 0 1 8.5002563,77.99989 69.5,69.5 0 0 1 77.99989,8.5002563 Z"
       inkscape:label="circular_boundary" /><text
       xml:space="preserve"
       transform="matrix(0,0.26458333,-0.26458333,0,192.13997,-58.656515)"
       id="text7"
       style="font-size:533.333px;font-family:'Cascadia Code';-inkscape-font-specification:'Cascadia Code';text-align:center;writing-mode:lr-tb;direction:ltr;white-space:pre;shape-inside:url(#rect8);display:inline;opacity:1;fill:#ececec"><tspan
         x="360.24717"
         y="659.09292"
         id="tspan3">▲</tspan></text><text
       xml:space="preserve"
       transform="matrix(0,0.26458333,-0.26458333,0,230.76819,-58.656516)"
       id="text8"
       style="font-size:533.333px;font-family:'Cascadia Code';-inkscape-font-specification:'Cascadia Code';text-align:center;writing-mode:lr-tb;direction:ltr;white-space:pre;shape-inside:url(#rect9);display:inline;opacity:1;fill:#ececec"><tspan
         x="360.24717"
         y="659.09292"
         id="tspan5">▲</tspan></text></g><g
     inkscape:label="rotate"
     inkscape:groupmode="layer"
     id="g4"
     style="display:inline;fill:#ececec"><path
       id="path2"
       style="opacity:1;fill:#ececec;stroke-width:0.379861"
       d="M 77.99989,0.99993896 A 77,77 0 0 0 0.99993896,77.99989 77,77 0 0 0 77.99989,154.99984 77,77 0 0 0 154.99984,77.99989 77,77 0 0 0 77.99989,0.99993896 Z m 0,7.50031734 A 69.5,69.5 0 0 1 147.50004,77.99989 69.5,69.5 0 0 1 77.99989,147.50004 69.5,69.5 0 0 1 8.5002563,77.99989 69.5,69.5 0 0 1 77.99989,8.5002563 Z"
       inkscape:label="circular_boundary" /><text
       xml:space="preserve"
       transform="matrix(-0.12850714,0.06815984,-0.06815984,-0.12850714,212.72273,85.061025)"
       id="text4"
       style="font-size:533.333px;font-family:'Cascadia Code';-inkscape-font-specification:'Cascadia Code';text-align:center;writing-mode:lr-tb;direction:ltr;white-space:pre;shape-inside:url(#rect5);display:inline;opacity:1;fill:#ececec"><tspan
         x="360.24717"
         y="659.09292"
         id="tspan6">▲</tspan></text><path
       id="text11"
       style="font-size:533.333px;font-family:'Cascadia Code';-inkscape-font-specification:'Cascadia Code';text-align:center;writing-mode:lr-tb;direction:ltr;text-anchor:middle;white-space:pre;shape-inside:url(#rect11);opacity:1;fill:#ececec"
       d="m 312.65299,-177.88859 c -31.4236,0 -58.85409,6.51095 -82.29158,19.53177 -23.43748,12.84722 -41.6669,30.98869 -54.68772,54.42618 -12.84722,23.437484 -19.27023,50.867981 -19.27023,82.291573 0,31.4235923 6.42301,58.854089 19.27023,82.291575 13.02082,23.437486 31.25024,41.666902 54.68772,54.687722 23.43749,12.84722 50.86798,19.27023 82.29158,19.27023 31.42359,0 58.85409,-6.42301 82.29157,-19.27023 11.73273,-6.51818 22.13818,-14.34214 31.21702,-23.470706 L 397.74488,63.45283 c -6.81423,6.814232 -14.60625,12.65187 -23.3736,17.512978 -17.53472,9.722216 -38.1072,14.582663 -61.71829,14.582663 -23.43749,0 -44.00997,-4.860447 -61.71829,-14.582663 C 233.39999,71.243592 219.77189,57.613934 210.04968,40.079223 200.32746,22.3709 195.46545,1.7984191 195.46545,-21.639067 c 0,-23.611096 4.86201,-44.183578 14.58423,-61.718289 9.72221,-17.534714 23.35031,-31.162804 40.88502,-40.885024 17.70832,-9.72221 38.2808,-14.58422 61.71829,-14.58422 23.61109,0 44.18357,4.86201 61.71829,14.58422 8.76734,4.86111 16.55938,10.69876 23.3736,17.51298 l 28.38537,-28.38537 c -9.07117,-9.07116 -19.46696,-16.81844 -31.18569,-23.24205 -23.43748,-13.02082 -50.86798,-19.53177 -82.29157,-19.53177 z"
       transform="matrix(0.32995295,0,0,0.32995295,-25.160885,85.139764)" /></g><g
     inkscape:label="joystick"
     inkscape:groupmode="layer"
     id="g13"
     style="display:inline;fill:#ececec"><path
       id="path12"
       style="opacity:1;fill:#ececec;stroke-width:0.379861"
       d="M 77.99989,0.99993896 A 77,77 0 0 0 0.99993896,77.99989 77,77 0 0 0 77.99989,154.99984 77,77 0 0 0 154.99984,77.99989 77,77 0 0 0 77.99989,0.99993896 Z m 0,7.50031734 A 69.5,69.5 0 0 1 147.50004,77.99989 69.5,69.5 0 0 1 77.99989,147.50004 69.5,69.5 0 0 1 8.5002563,77.99989 69.5,69.5 0 0 1 77.99989,8.5002563 Z"
       inkscape:label="circular_boundary" /><circle
       style="opacity:1;fill:#ececec;stroke-width:0.199665"
       id="path14"
       cx="78"
       cy="78"
       r="52.597538" /></g><g
     inkscape:label="dpad_icon"
     inkscape:groupmode="layer"
     id="g15"
     style="display:inline;fill:#ececec"><path
       id="path15"
       style="opacity:1;fill:#ececec;stroke-width:0.379861"
       d="M 77.99989,0.99993896 A 77,77 0 0 0 0.99993896,77.99989 77,77 0 0 0 77.99989,154.99984 77,77 0 0 0 154.99984,77.99989 77,77 0 0 0 77.99989,0.99993896 Z m 0,7.50031734 A 69.5,69.5 0 0 1 147.50004,77.99989 69.5,69.5 0 0 1 77.99989,147.50004 69.5,69.5 0 0 1 8.5002563,77.99989 69.5,69.5 0 0 1 77.99989,8.5002563 Z"
       inkscape:label="circular_boundary" /><rect
       style="opacity:1;fill:#ececec;stroke-width:0.208785"
       id="rect15"
       width="37.790359"
       height="105.19507"
       x="59.10482"
       y="25.402466" /><rect
       style="opacity:1;fill:#ececec;stroke-width:0.208785"
       id="rect16"
       width="37.790359"
       height="105.19507"
       x="59.10482"
       y="-130.59753"
       transform="rotate(90)" /></g></svg>
